<?xml version="1.0" encoding="utf-8"?>
<svg version="1.1" id="Layer_1" xmlns="http://www.w3.org/2000/svg" x="0px"
     y="0px"
     viewBox="0 0 116.4978 90.6175" style="enable-background:new 0 0 116.4978 90.6175;" xml:space="preserve">
<g>
	<path fill="#ffffff" d="M21.193,90.1026v-5.9993c0-2.2597-1.4397-3.7795-3.7594-3.7994c-1.2198-0.02-2.4796,0.3599-3.3595,1.6997
		c-0.6599-1.0597-1.6999-1.6997-3.1596-1.6997c-1.0199,0-2.0197,0.2999-2.7996,1.4198v-1.1798H6.0351v9.5587h2.0997v-5.2994
		c0-1.6597,0.92-2.5396,2.3397-2.5396c1.3798,0,2.0798,0.8999,2.0798,2.5196v5.3194h2.0997v-5.2994
		c0-1.6597,0.9599-2.5396,2.3397-2.5396c1.4197,0,2.0996,0.8999,2.0996,2.5196v5.3194H21.193z M52.2688,80.5439h-3.3995v-2.8996
		h-2.0997v2.8996h-1.9398v1.8997h1.9398v4.3594c0,2.2196,0.8599,3.5396,3.3195,3.5396c0.8999,0,1.9397-0.2801,2.5996-0.74
		l-0.5998-1.7798c-0.62,0.36-1.3,0.54-1.8398,0.54c-1.0399,0-1.3798-0.6401-1.3798-1.5997v-4.3195h3.3995V80.5439z M70.0064,80.3039
		c-1.1998,0-1.9798,0.56-2.5196,1.3998v-1.1598H65.427v9.5587h2.0797v-5.3594c0-1.5797,0.6799-2.4596,2.0399-2.4596
		c0.4198,0,0.8598,0.06,1.2997,0.24l0.6399-1.9598C71.0262,80.3839,70.4263,80.3039,70.0064,80.3039L70.0064,80.3039z
		 M43.1901,81.3037c-1-0.6599-2.3798-0.9998-3.8995-0.9998c-2.4197,0-3.9794,1.1598-3.9794,3.0595
		c0,1.5599,1.1598,2.5198,3.2994,2.8197l0.9799,0.1399c1.1398,0.1598,1.6798,0.4599,1.6798,0.9998c0,0.7399-0.76,1.16-2.1797,1.16
		c-1.4397,0-2.4796-0.46-3.1796-1l-0.9798,1.6198c1.1398,0.8398,2.5797,1.24,4.1394,1.24c2.7596,0,4.3593-1.3,4.3593-3.1197
		c0-1.6798-1.2597-2.5597-3.3394-2.8597l-0.9798-0.14c-0.9-0.1199-1.6198-0.2997-1.6198-0.9396c0-0.7,0.6797-1.12,1.8197-1.12
		c1.2198,0,2.3996,0.4601,2.9796,0.8199L43.1901,81.3037z M98.9024,80.3039c-1.1999,0-1.9797,0.56-2.5196,1.3998v-1.1598h-2.0597
		v9.5587h2.0796v-5.3594c0-1.5797,0.68-2.4596,2.0397-2.4596c0.4201,0,0.8601,0.06,1.3,0.24l0.6399-1.9598
		C99.9223,80.3839,99.3223,80.3039,98.9024,80.3039L98.9024,80.3039z M72.106,85.323c0,2.8999,2.0199,5.0196,5.0995,5.0196
		c1.4398,0,2.3995-0.32,3.4394-1.14l-0.9998-1.6798c-0.7799,0.56-1.5998,0.8599-2.4997,0.8599
		c-1.6598-0.0199-2.8795-1.2199-2.8795-3.0597c0-1.8395,1.2197-3.0394,2.8795-3.0594c0.8999,0,1.7198,0.2999,2.4997,0.86
		l0.9998-1.6799c-1.0399-0.8198-1.9996-1.1398-3.4394-1.1398C74.1259,80.3039,72.106,82.4236,72.106,85.323L72.106,85.323z
		 M91.5834,85.323v-4.7791h-2.0797v1.1598c-0.6599-0.8599-1.6597-1.3998-3.0196-1.3998c-2.6796,0-4.7793,2.0998-4.7793,5.0191
		c0,2.9197,2.0997,5.0196,4.7793,5.0196c1.3599,0,2.3597-0.5401,3.0196-1.4v1.16h2.0797V85.323z M83.8444,85.323
		c0-1.6797,1.0999-3.0594,2.8998-3.0594c1.7196,0,2.8795,1.3197,2.8795,3.0594c0,1.7399-1.1599,3.0597-2.8795,3.0597
		C84.9443,88.3827,83.8444,87.0028,83.8444,85.323L83.8444,85.323z M58.748,80.3039c-2.7997,0-4.7594,2.0397-4.7594,5.0191
		c0,3.0398,2.0397,5.0196,4.8994,5.0196c1.4398,0,2.7596-0.3601,3.9194-1.34l-1.0199-1.5397
		c-0.7998,0.6399-1.8197,0.9998-2.7796,0.9998c-1.3399,0-2.5597-0.6199-2.8596-2.3398h7.0991
		c0.02-0.2598,0.0399-0.5198,0.0399-0.7999C63.2674,82.3436,61.4276,80.3039,58.748,80.3039L58.748,80.3039z M58.7079,82.1636
		c1.3399,0,2.1998,0.8399,2.4197,2.3197h-4.9593C56.3883,83.1034,57.2281,82.1636,58.7079,82.1636L58.7079,82.1636z
		 M110.8808,85.323v-8.6185h-2.0798v4.9992c-0.6599-0.8599-1.6597-1.3998-3.0195-1.3998c-2.6797,0-4.7794,2.0998-4.7794,5.0191
		c0,2.9197,2.0997,5.0196,4.7794,5.0196c1.3598,0,2.3596-0.5401,3.0195-1.4v1.16h2.0798V85.323z M103.1419,85.323
		c0-1.6797,1.0998-3.0594,2.8995-3.0594c1.7197,0,2.8795,1.3197,2.8795,3.0594c0,1.7399-1.1598,3.0597-2.8795,3.0597
		C104.2417,88.3827,103.1419,87.0028,103.1419,85.323L103.1419,85.323z M32.9115,85.323v-4.7791h-2.0798v1.1598
		c-0.6599-0.8599-1.6597-1.3998-3.0196-1.3998c-2.6796,0-4.7793,2.0998-4.7793,5.0191c0,2.9197,2.0997,5.0196,4.7793,5.0196
		c1.3599,0,2.3597-0.5401,3.0196-1.4v1.16h2.0798V85.323z M25.1726,85.323c0-1.6797,1.0998-3.0594,2.8995-3.0594
		c1.7197,0,2.8795,1.3197,2.8795,3.0594c0,1.7399-1.1598,3.0597-2.8795,3.0597C26.2724,88.3827,25.1726,87.0028,25.1726,85.323z
		 M114.3476,88.7173c0.1336,0,0.2589,0.0249,0.3762,0.0746c0.1171,0.0496,0.2196,0.1173,0.3074,0.2037
		c0.0875,0.0862,0.1567,0.187,0.2071,0.3027s0.0758,0.2387,0.0758,0.3691c0,0.1302-0.0254,0.2531-0.0758,0.368
		c-0.0504,0.1148-0.1196,0.2151-0.2071,0.3015c-0.0878,0.0862-0.1903,0.1543-0.3074,0.2048
		c-0.1173,0.0506-0.2426,0.0758-0.3762,0.0758c-0.1366,0-0.2641-0.0252-0.3829-0.0758c-0.1189-0.0505-0.2218-0.1186-0.3085-0.2048
		c-0.087-0.0864-0.1558-0.1867-0.2062-0.3015c-0.0504-0.1149-0.0756-0.2378-0.0756-0.368c0-0.1304,0.0252-0.2534,0.0756-0.3691
		c0.0504-0.1157,0.1192-0.2165,0.2062-0.3027c0.0867-0.0864,0.1896-0.1541,0.3085-0.2037
		C114.0835,88.7422,114.211,88.7173,114.3476,88.7173z M114.3476,90.4079c0.1026,0,0.1981-0.0195,0.2866-0.0582
		c0.0885-0.0388,0.166-0.0917,0.2327-0.1584c0.0669-0.0668,0.1192-0.1451,0.1573-0.2351c0.038-0.0902,0.057-0.1864,0.057-0.2888
		c0-0.1024-0.019-0.1986-0.057-0.2888c-0.0381-0.09-0.0904-0.1683-0.1573-0.2353c-0.0667-0.0667-0.1442-0.1189-0.2327-0.157
		c-0.0885-0.0381-0.184-0.0571-0.2866-0.0571c-0.104,0-0.2014,0.019-0.2922,0.0571c-0.0907,0.0381-0.1696,0.0903-0.2363,0.157
		c-0.0667,0.067-0.1192,0.1453-0.1573,0.2353c-0.0379,0.0902-0.057,0.1864-0.057,0.2888c0,0.1024,0.0191,0.1986,0.057,0.2888
		c0.0381,0.09,0.0906,0.1683,0.1573,0.2351c0.0667,0.0667,0.1456,0.1196,0.2363,0.1584
		C114.1462,90.3884,114.2436,90.4079,114.3476,90.4079z M114.4035,89.2225c0.1134,0,0.2007,0.0252,0.2621,0.0758
		c0.0612,0.0505,0.0919,0.1191,0.0919,0.2061c0,0.0728-0.0244,0.1332-0.0733,0.1803c-0.0489,0.0475-0.1184,0.0766-0.2085,0.0874
		l0.2888,0.333h-0.2258l-0.2678-0.3307h-0.0862v0.3307h-0.1886v-0.8826H114.4035z M114.1847,89.388v0.2352h0.2166
		c0.0496,0,0.0892-0.0098,0.1188-0.0293c0.0294-0.0193,0.0441-0.0492,0.0441-0.0895c0-0.0389-0.0147-0.0679-0.0441-0.0875
		c-0.0296-0.0193-0.0692-0.0289-0.1188-0.0289H114.1847z M113.0596,58.3078v-1.1589h0.4673v-0.2361h-1.1901v0.2361h0.4675v1.1589
		H113.0596z M115.3701,58.3078v-1.3973h-0.3648l-0.4196,0.9611l-0.4197-0.9611h-0.365v1.3973h0.2576v-1.054l0.3935,0.9087h0.2671
		l0.3935-0.911v1.0563H115.3701z M55.0591,65.2624c0.281,0.2447,0.5781,0.4811,0.8702,0.7207C50.2227,69.7838,43.3705,72,36,72
		C16.1172,72,0,55.882,0,36S16.1172,0,36,0c7.3703,0,14.2224,2.2161,19.9289,6.0166c-0.2917,0.2393-0.5872,0.4744-0.8698,0.72
		c-8.4814,7.3793-13.3452,18.0452-13.3452,29.2632C41.7139,47.2186,46.5777,57.8845,55.0591,65.2624z M80.4978,0.0002
		c-7.3703,0-14.2223,2.216-19.9288,6.0165c0.2917,0.2394,0.5874,0.4746,0.87,0.7206c8.4815,7.3786,13.3452,18.0445,13.3452,29.2625
		c0,11.2181-4.8637,21.884-13.3444,29.2626c-0.2815,0.2448-0.5786,0.4812-0.8709,0.721c5.7064,3.8,12.5585,6.0161,19.9289,6.0161
		c19.882,0,36-16.1173,36-35.9993C116.4978,16.1175,100.3798,0.0002,80.4978,0.0002z M58.2491,7.7104
		c-0.4639,0.365-0.918,0.7407-1.3623,1.1276c-7.5861,6.6002-12.388,16.3172-12.388,27.1618c0,10.8447,4.8019,20.5617,12.388,27.1619
		c0.4443,0.3869,0.8984,0.7625,1.3623,1.1276c0.4639-0.3651,0.918-0.7407,1.3622-1.1276
		c7.5861-6.6002,12.388-16.3172,12.388-27.1619c0-10.8446-4.8019-20.5616-12.388-27.1618
		C59.1671,8.4511,58.713,8.0754,58.2491,7.7104"/>
</g>
</svg>
