<?xml version="1.0" encoding="UTF-8"?>
<svg width="15px" height="18px" viewBox="0 0 15 18" version="1.1" xmlns="http://www.w3.org/2000/svg"
>
    <g id="Page-1" stroke="none" stroke-width="1" fill="none" fill-rule="evenodd">
        <g fill="#ffffff" fill-rule="nonzero">
            <path d="M8.502,1.905 C9.455,1.882 10.401,2.084 11.263,2.494 C11.505,2.614 11.733,2.758 11.944,2.926 C12.146,3.082 12.329,3.26 12.49,3.458 C12.647,3.654 12.782,3.866 12.891,4.092 C12.946,4.205 12.994,4.321 13.035,4.44 C13.162,4.814 13.226,5.207 13.223,5.602 C13.223,5.716 13.219,5.826 13.211,5.941 C13.09,7.613 12.071,8.995 10.478,9.84 L10.478,9.845 L11.9,13.74 C12.315,14.805 12.553,15.237 13.026,15.576 C12.914,15.638 12.798,15.691 12.678,15.734 C11.963,15.98 11.212,16.102 10.457,16.095 C9.726,16.095 8.699,15.919 8.086,14.031 L6.998,10.853 L5.933,10.853 L5.459,13.89 C5.402,14.231 5.366,14.574 5.351,14.92 L5.351,15.012 C5.347,15.207 5.39,15.4 5.475,15.576 C5.475,15.58 5.478,15.58 5.479,15.584 C4.656,15.914 3.777,16.077 2.891,16.064 C2.328,16.064 1.803,15.879 1.779,14.889 C1.776,14.617 1.798,14.346 1.844,14.079 L3.227,5.038 C3.345,4.379 3.408,3.71 3.416,3.04 L3.416,3.018 L3.416,2.948 C3.416,2.71 3.423,2.613 3.403,2.142 L3.422,2.142 L3.422,2.226 C4.566,2.015 5.727,1.909 6.891,1.909 C6.987,1.905 7.065,1.905 7.159,1.905 L8.502,1.905 Z M8.486,0.002 L6.874,0.002 C5.806,0.018 4.741,0.1 3.683,0.247 C3.617,0.239 3.551,0.234 3.485,0.234 L3.467,0.234 C2.956,0.235 2.469,0.451 2.119,0.831 C1.765,1.211 1.579,1.721 1.601,2.245 C1.614,2.543 1.613,2.657 1.612,2.789 L1.612,2.973 L1.612,3.008 L1.612,3.017 L1.612,3.022 L1.612,3.026 L1.612,3.03 L1.612,3.035 C1.603,3.604 1.548,4.172 1.45,4.733 C1.45,4.736 1.45,4.739 1.45,4.742 C1.45,4.745 1.45,4.748 1.45,4.751 L0.087,13.758 C0.023,14.142 -0.006,14.531 0.001,14.921 C0.049,16.773 1.211,17.971 2.963,17.971 C4.105,17.983 5.239,17.76 6.295,17.313 C6.687,17.125 7.003,16.804 7.19,16.405 C7.943,17.445 9.147,18.041 10.411,17.998 C11.381,18.004 12.346,17.84 13.263,17.515 C13.456,17.44 13.644,17.352 13.826,17.252 C14.394,16.933 14.763,16.338 14.802,15.675 C14.841,15.013 14.544,14.376 14.017,13.99 L13.996,13.973 C13.817,13.681 13.675,13.367 13.573,13.038 L12.69,10.589 C14.021,9.471 14.849,7.847 14.983,6.09 C14.994,5.927 15,5.769 15,5.611 C15.002,4.999 14.904,4.39 14.708,3.812 C14.644,3.623 14.568,3.438 14.482,3.259 C14.311,2.898 14.099,2.559 13.85,2.249 C13.603,1.943 13.324,1.664 13.018,1.419 C12.711,1.177 12.382,0.966 12.036,0.787 C10.929,0.245 9.713,-0.024 8.486,0.002 Z M7.238,8.731 L6.249,8.731 L6.842,5.034 C6.874,4.695 6.927,4.359 6.999,4.026 L7.809,4.026 C8.837,4.026 9.489,4.77 9.489,5.976 C9.489,7.626 8.521,8.731 7.236,8.731 L7.238,8.731 Z"
                  id="path"></path>
        </g>
    </g>
</svg>
