<svg
        xmlns="http://www.w3.org/2000/svg"
        viewBox="0 0 24 24"
        id="vector">
    <path
            id="path"
            d="M 12 14 C 13.105 14 14 13.105 14 12 C 14 10.895 13.105 10 12 10 C 10.895 10 10 10.895 10 12 C 10 13.105 10.895 14 12 14 Z M 20.158 15.591 L 20.665 15.884 C 21.143 16.16 21.307 16.772 21.031 17.25 C 20.755 17.728 20.143 17.892 19.665 17.616 L 19.158 17.323 L 19.448 18.406 C 19.591 18.94 19.274 19.488 18.741 19.631 C 18.207 19.774 17.659 19.457 17.516 18.924 L 16.708 15.909 L 14.902 14.866 C 14.878 14.852 14.856 14.838 14.834 14.823 C 14.335 15.323 13.705 15.692 13 15.874 L 13 17.586 L 15.207 19.793 C 15.598 20.183 15.598 20.817 15.207 21.207 C 14.817 21.598 14.183 21.598 13.793 21.207 L 13 20.414 L 13 21 C 13 21.552 12.552 22 12 22 C 11.448 22 11 21.552 11 21 L 11 20.414 L 10.207 21.207 C 9.817 21.598 9.183 21.598 8.793 21.207 C 8.402 20.817 8.402 20.183 8.793 19.793 L 11 17.586 L 11 15.874 C 10.295 15.692 9.665 15.323 9.166 14.823 C 9.144 14.838 9.122 14.852 9.098 14.866 L 7.292 15.909 L 6.484 18.924 C 6.341 19.457 5.793 19.774 5.259 19.631 C 4.726 19.488 4.409 18.94 4.552 18.406 L 4.842 17.323 L 4.335 17.616 C 3.857 17.892 3.245 17.728 2.969 17.25 C 2.693 16.772 2.857 16.16 3.335 15.884 L 3.842 15.591 L 2.759 15.301 C 2.226 15.158 1.909 14.61 2.052 14.076 C 2.195 13.543 2.743 13.226 3.277 13.369 L 6.292 14.177 L 8.098 13.134 C 8.117 13.123 8.135 13.113 8.154 13.104 C 8.054 12.753 8 12.383 8 12 C 8 11.617 8.054 11.247 8.154 10.896 C 8.135 10.887 8.117 10.877 8.098 10.866 L 6.292 9.823 L 3.277 10.631 C 2.743 10.774 2.195 10.457 2.052 9.924 C 1.909 9.39 2.226 8.842 2.759 8.699 L 3.842 8.409 L 3.335 8.116 C 2.857 7.84 2.693 7.228 2.969 6.75 C 3.245 6.272 3.857 6.108 4.335 6.384 L 4.842 6.677 L 4.552 5.594 C 4.409 5.06 4.726 4.512 5.259 4.369 C 5.793 4.226 6.341 4.543 6.484 5.076 L 7.292 8.091 L 9.098 9.134 C 9.122 9.148 9.144 9.162 9.166 9.177 C 9.665 8.677 10.295 8.308 11 8.126 L 11 6.414 L 8.793 4.207 C 8.402 3.817 8.402 3.183 8.793 2.793 C 9.183 2.402 9.817 2.402 10.207 2.793 L 11 3.586 L 11 3 C 11 2.448 11.448 2 12 2 C 12.552 2 13 2.448 13 3 L 13 3.586 L 13.793 2.793 C 14.183 2.402 14.817 2.402 15.207 2.793 C 15.598 3.183 15.598 3.817 15.207 4.207 L 13 6.414 L 13 8.126 C 13.705 8.308 14.335 8.677 14.834 9.177 C 14.856 9.162 14.878 9.148 14.902 9.134 L 16.708 8.091 L 17.516 5.076 C 17.659 4.543 18.207 4.226 18.741 4.369 C 19.274 4.512 19.591 5.06 19.448 5.594 L 19.158 6.677 L 19.665 6.384 C 20.143 6.108 20.755 6.272 21.031 6.75 C 21.307 7.228 21.143 7.84 20.665 8.116 L 20.158 8.409 L 21.241 8.699 C 21.774 8.842 22.091 9.39 21.948 9.924 C 21.805 10.457 21.257 10.774 20.723 10.631 L 17.708 9.823 L 15.902 10.866 C 15.883 10.877 15.865 10.887 15.846 10.896 C 15.946 11.247 16 11.617 16 12 C 16 12.383 15.946 12.753 15.846 13.104 C 15.865 13.113 15.883 13.123 15.902 13.134 L 17.708 14.177 L 20.723 13.369 C 21.257 13.226 21.805 13.543 21.948 14.076 C 22.091 14.61 21.774 15.158 21.241 15.301 L 20.158 15.591 Z"
            fill="#ffffff"/>
</svg>
