<svg
        xmlns="http://www.w3.org/2000/svg"
        viewBox="0 0 20 20"
        id="vector">
    <path
            id="path"
            d="M 10 20 C 4.477 20 0 15.523 0 10 C 0 4.477 4.477 0 10 0 C 15.523 0 20 4.477 20 10 C 20 15.523 15.523 20 10 20 Z"
            fill="#ffffff"/>
    <path
            id="path_1"
            d="M 10 18 C 14.418 18 18 14.418 18 10 C 18 5.582 14.418 2 10 2 C 5.582 2 2 5.582 2 10 C 2 14.418 5.582 18 10 18 Z"
            fill="#0075eb"/>
    <g
            id="group_1"
            transform="translate(19.55364 0) scale(-1 1)">
        <path
                id="path_2"
                d="M 10.532 7.325 C 10.531 6.759 10.867 6.609 11.283 6.985 L 14.561 9.516 C 14.828 9.758 14.834 10.199 14.561 10.455 L 11.282 13.06 C 10.872 13.445 10.54 13.297 10.54 12.734 L 10.54 11.004 L 5.805 11.004 C 5.245 11.004 4.79 10.561 4.79 10 C 4.79 9.439 5.246 9.005 5.805 9.005 L 10.537 9.005 L 10.532 7.325 Z"
                fill="#ffffff"/>
    </g>
</svg>
