<svg
        xmlns="http://www.w3.org/2000/svg"
        viewBox="0 0 20 20"
        id="vector">
    <path
            id="path"
            d="M 10 20 C 4.477 20 0 15.523 0 10 C 0 4.477 4.477 0 10 0 C 15.523 0 20 4.477 20 10 C 20 15.523 15.523 20 10 20 Z"
            fill="#ffffff"/>
    <path
            id="path_1"
            d="M 10 18 C 14.418 18 18 14.418 18 10 C 18 5.582 14.418 2 10 2 C 5.582 2 2 5.582 2 10 C 2 14.418 5.582 18 10 18 Z"
            fill="#0075eb"/>
    <path
            id="path_2"
            d="M 10.976 7.325 C 10.976 6.759 11.312 6.609 11.728 6.985 L 15.005 9.516 C 15.273 9.758 15.279 10.199 15.005 10.455 L 11.727 13.06 C 11.316 13.445 10.985 13.297 10.984 12.734 L 10.984 11.004 L 6.25 11.004 C 5.69 11.004 5.235 10.561 5.235 10 C 5.235 9.439 5.691 9.005 6.25 9.005 L 10.982 9.005 L 10.976 7.325 Z"
            fill="#ffffff"/>
</svg>
