<?xml version="1.0" encoding="utf-8"?>
<!-- Generator: Adobe Illustrator 23.1.1, SVG Export Plug-In . SVG Version: 6.00 Build 0)  -->
<svg version="1.1" id="vector" xmlns="http://www.w3.org/2000/svg" xmlns:xlink="http://www.w3.org/1999/xlink" x="0px" y="0px"
	 viewBox="0 0 24 24" style="enable-background:new 0 0 24 24;" xml:space="preserve">
<style type="text/css">
	.st0{fill:#0075EB;}
</style>
<path id="path_2" class="st0" d="M20.5,13.4l-6.4,6.4c-2.8,2.8-7.1,2.8-9.9,0s-2.8-7.1,0-9.9l4.2-4.2l2.8-2.8c2-2,5.1-2,7.1,0
	s2,5.1,0,7.1l-2,2l-3.7,3.7c-1.2,1.2-3,1.2-4.2,0s-1.2-3,0-4.2l4.9-4.9c0.4-0.4,1-0.4,1.4,0c0.4,0.4,0.4,1,0,1.4l-4.9,4.9
	c-0.4,0.4-0.4,1,0,1.4c0.4,0.4,1,0.4,1.4,0l3.7-3.7l2-2c1.2-1.2,1.2-3,0-4.2s-3-1.2-4.2,0L9.9,7.1l-4.2,4.2c-2,2-2,5.1,0,7.1
	s5.1,2,7.1,0l6.4-6.4c0.4-0.4,1-0.4,1.4,0S20.9,13,20.5,13.4z"/>
</svg>
