<svg
    xmlns="http://www.w3.org/2000/svg"
    viewBox="0 0 56 56"
    id="vector">
    <path
        id="path"
        d="M 36.99 0 L 7.96 0 C 7.16 0 6.5 0.65 6.5 1.93 L 6.5 55 C 6.5 55.34 7.15 56 7.96 56 L 48.03 56 C 48.84 56 49.49 55.35 49.49 55 L 49.49 12.98 C 49.49 12.28 49.4 12.06 49.23 11.89 L 37.61 0.26 C 37.446 0.095 37.223 0.001 36.99 0 Z"
        fill="#e9e9e0"/>
    <path
        id="path_1"
        d="M 37.5 0.15 L 37.5 12 L 49.35 12 Z"
        fill="#d9d7ca"/>
    <path
        id="path_2"
        d="M 19.51 33.32 C 19.16 33.32 18.83 33.21 18.54 32.99 C 17.5 32.21 17.36 31.34 17.42 30.75 C 17.6 29.12 19.61 27.42 23.41 25.68 C 24.91 22.38 26.34 18.32 27.2 14.93 C 26.2 12.76 25.23 9.94 25.94 8.29 C 26.19 7.71 26.5 7.27 27.07 7.07 C 27.403 6.978 27.745 6.921 28.09 6.9 C 28.59 6.9 29.04 7.55 29.35 7.95 C 29.64 8.33 30.31 9.12 28.98 14.75 C 30.33 17.53 32.24 20.37 34.07 22.31 C 35.38 22.07 36.51 21.95 37.43 21.95 C 39 21.95 39.95 22.32 40.33 23.07 C 40.65 23.69 40.52 24.42 39.94 25.23 C 39.38 26.01 38.61 26.42 37.72 26.42 C 36.5 26.42 35.09 25.65 33.51 24.13 C 30.67 24.72 27.36 25.78 24.68 26.95 C 23.84 28.72 23.04 30.15 22.3 31.2 C 21.28 32.63 20.39 33.31 19.52 33.31 Z M 22.18 28.2 C 20.04 29.4 19.17 30.39 19.11 30.94 C 19.1 31.03 19.07 31.27 19.54 31.63 C 19.69 31.58 20.56 31.19 22.18 28.19 Z M 35.81 23.76 C 36.62 24.39 36.82 24.7 37.36 24.7 C 37.59 24.7 38.26 24.69 38.57 24.26 C 38.72 24.05 38.78 23.92 38.8 23.85 C 38.68 23.79 38.51 23.65 37.63 23.65 C 37.13 23.65 36.49 23.67 35.82 23.76 Z M 28.34 17.17 C 27.593 19.738 26.701 22.262 25.67 24.73 C 27.788 23.91 29.96 23.235 32.17 22.71 C 30.82 21.14 29.47 19.18 28.35 17.17 Z M 27.74 8.71 C 27.64 8.74 26.41 10.47 27.84 11.93 C 28.79 9.81 27.79 8.7 27.74 8.71 Z M 48.04 56 L 7.96 56 C 7.704 56 7.452 55.933 7.23 55.804 C 7.008 55.676 6.824 55.492 6.696 55.27 C 6.567 55.048 6.5 54.796 6.5 54.54 L 6.5 39 L 49.5 39 L 49.5 54.54 C 49.5 55.35 48.85 56 48.04 56 Z"
        fill="#cc4b4c"/>
    <path
        id="path_3"
        d="M 17.39 53 L 15.75 53 L 15.74 42.92 L 18.64 42.92 C 19.07 42.92 19.49 42.99 19.91 43.12 C 20.33 43.26 20.71 43.46 21.04 43.74 C 21.37 44.01 21.64 44.34 21.85 44.73 C 22.06 45.12 22.16 45.55 22.16 46.04 C 22.16 46.55 22.07 47.01 21.9 47.43 C 21.738 47.83 21.488 48.189 21.17 48.48 C 20.86 48.76 20.49 48.98 20.05 49.14 C 19.61 49.3 19.13 49.37 18.6 49.37 L 17.38 49.37 L 17.38 53 Z M 17.39 44.17 L 17.39 48.16 L 18.89 48.16 C 19.09 48.16 19.29 48.13 19.49 48.06 C 19.69 47.99 19.87 47.88 20.03 47.72 C 20.19 47.56 20.33 47.35 20.43 47.07 C 20.53 46.79 20.58 46.45 20.58 46.04 C 20.58 45.88 20.56 45.69 20.51 45.47 C 20.461 45.246 20.366 45.035 20.23 44.85 C 20.071 44.642 19.866 44.474 19.63 44.36 C 19.38 44.23 19.04 44.16 18.62 44.16 L 17.39 44.16 Z M 32.22 47.68 C 32.22 48.51 32.13 49.22 31.95 49.81 C 31.77 50.4 31.55 50.89 31.27 51.29 C 30.99 51.69 30.69 52 30.35 52.23 C 30.01 52.46 29.68 52.63 29.36 52.74 C 29.076 52.846 28.781 52.92 28.48 52.96 C 28.22 52.99 28.02 53.01 27.89 53.01 L 24.08 53.01 L 24.08 42.92 L 27.12 42.92 C 27.97 42.92 28.71 43.06 29.35 43.32 C 29.99 43.58 30.53 43.95 30.95 44.39 C 31.37 44.83 31.69 45.34 31.9 45.91 C 32.11 46.48 32.21 47.07 32.21 47.67 Z M 27.35 51.8 C 28.46 51.8 29.26 51.45 29.76 50.73 C 30.26 50.01 30.5 48.99 30.5 47.64 C 30.5 47.22 30.45 46.81 30.35 46.4 C 30.25 45.99 30.06 45.62 29.77 45.29 C 29.48 44.96 29.09 44.69 28.6 44.48 C 28.11 44.27 27.47 44.17 26.69 44.17 L 25.73 44.17 L 25.73 51.8 L 27.36 51.8 Z M 36.27 44.17 L 36.27 47.34 L 40.48 47.34 L 40.48 48.46 L 36.27 48.46 L 36.27 53 L 34.6 53 L 34.6 42.92 L 40.9 42.92 L 40.9 44.16 L 36.27 44.16 Z"
        fill="#ffffff"/>
</svg>
