<svg
    xmlns="http://www.w3.org/2000/svg"
    viewBox="0 0 32 32"
    id="vector">
    <path
        id="path_1"
        d="M 14.94 25.65 L 8.97 29.4 L 8.97 29.4 C 8.26 29.84 7.34 29.63 6.9 28.93 C 6.68 28.58 6.61 28.16 6.71 27.76 L 8.43 20.93 L 8.43 20.93 C 8.62 20.18 8.37 19.4 7.78 18.9 L 2.37 14.38 L 2.37 14.38 C 1.73 13.85 1.65 12.91 2.18 12.27 C 2.44 11.96 2.82 11.76 3.23 11.74 L 10.26 11.26 L 10.26 11.26 C 11.03 11.21 11.69 10.72 11.98 10.01 L 14.61 3.47 L 14.61 3.47 C 14.92 2.7 15.79 2.32 16.56 2.63 C 16.94 2.79 17.24 3.09 17.39 3.47 L 20.02 10.01 L 20.02 10.01 C 20.31 10.72 20.97 11.21 21.74 11.26 L 28.77 11.74 L 28.77 11.74 C 29.6 11.79 30.22 12.51 30.17 13.33 C 30.14 13.74 29.95 14.12 29.63 14.38 L 24.22 18.9 L 24.22 18.9 C 23.63 19.4 23.38 20.18 23.57 20.93 L 25.29 27.76 L 25.29 27.76 C 25.49 28.57 25 29.38 24.2 29.58 C 23.8 29.68 23.38 29.62 23.03 29.4 L 17.06 25.65 L 17.06 25.65 C 16.41 25.24 15.59 25.24 14.94 25.65 Z"
        fill="#000000"
        fill-rule="evenodd"/>
</svg>
