<svg
    xmlns="http://www.w3.org/2000/svg"
    viewBox="0 0 32 32"
    id="vector">
    <path
        id="path"
        d="M 14.4 24.8 C 15.38 24.19 16.62 24.19 17.6 24.8 L 23.57 28.55 C 23.68 28.62 23.82 28.65 23.95 28.61 C 24.22 28.55 24.38 28.27 24.32 28.01 L 22.6 21.17 C 22.32 20.05 22.7 18.87 23.58 18.14 L 28.99 13.62 C 29.1 13.53 29.16 13.4 29.17 13.27 C 29.19 12.99 28.98 12.75 28.71 12.73 L 21.67 12.26 C 20.52 12.18 19.52 11.45 19.09 10.38 L 16.46 3.84 C 16.41 3.71 16.31 3.61 16.19 3.56 C 15.93 3.46 15.64 3.58 15.54 3.84 L 12.91 10.38 C 12.48 11.45 11.48 12.18 10.33 12.26 L 3.29 12.73 C 3.16 12.74 3.03 12.81 2.94 12.91 C 2.77 13.12 2.8 13.44 3.01 13.62 L 8.42 18.14 C 9.3 18.87 9.68 20.05 9.4 21.17 L 7.68 28.01 C 7.65 28.14 7.67 28.28 7.74 28.39 C 7.89 28.63 8.2 28.7 8.43 28.55 L 14.4 24.8 Z"
        fill="#00000000"
        stroke="#000000"
        stroke-width="2"/>
</svg>
