<?xml version="1.0" encoding="utf-8"?>
<svg version="1.1" id="vector" xmlns="http://www.w3.org/2000/svg" x="0px"
     y="0px"
     viewBox="0 0 40 40" style="enable-background:new 0 0 40 40;" xml:space="preserve">
<style type="text/css">
	.st0{fill:#FFFFFF;}
	.st1{fill:#6085A7;fill-opacity:0.1;}
	.st2{fill:#6A8CAD;}
</style>
    <path id="path" class="st0" d="M20,40c11.046,0,20-8.954,20-20S31.046,0,20,0S0,8.954,0,20S8.954,40,20,40z"/>
    <path id="path_1" class="st1" d="M20,40c11.046,0,20-8.954,20-20S31.046,0,20,0S0,8.954,0,20S8.954,40,20,40z"/>
    <path id="path_1_" class="st2" d="M11,27.6324c0-0.279,0.228-0.505,0.5-0.505h17c0.276,0,0.5,0.214,0.5,0.505v0.99
	c0,0.279-0.228,0.505-0.5,0.505h-17c-0.276,0-0.5-0.214-0.5-0.505V27.6324z M13,20.1184c0-0.271,0.214-0.491,0.505-0.491h0.99
	c0.279,0,0.505,0.228,0.505,0.491v5.018c0,0.271-0.214,0.491-0.505,0.491h-0.99c-0.279,0-0.505-0.228-0.505-0.491V20.1184z
	 M19,20.1184c0-0.271,0.214-0.491,0.505-0.491h0.99c0.279,0,0.505,0.228,0.505,0.491v5.018c0,0.271-0.214,0.491-0.505,0.491h-0.99
	c-0.279,0-0.505-0.228-0.505-0.491V20.1184z M25,20.1184c0-0.271,0.214-0.491,0.505-0.491h0.99c0.279,0,0.505,0.228,0.505,0.491
	v5.018c0,0.271-0.214,0.491-0.505,0.491h-0.99c-0.279,0-0.505-0.228-0.505-0.491V20.1184z M11.43,15.4234l7.998-4.405
	c0.348-0.192,0.788-0.197,1.144,0l7.998,4.405c0.238,0.131,0.43,0.46,0.43,0.736v1.469c0,0.271-0.224,0.499-0.5,0.499h-17
	c-0.272,0-0.5-0.224-0.5-0.499v-1.469C11,15.8874,11.192,15.5544,11.43,15.4234z"/>
</svg>
