<svg
        xmlns="http://www.w3.org/2000/svg"
        viewBox="0 0 24 24"
        id="vector">
    <path
            id="path_1"
            d="M 8.5 13.5 C 9.1 13.5 9.5 12.8 9.5 12 C 9.5 11.2 9.1 10.5 8.5 10.5 C 7.9 10.5 7.5 11.2 7.5 12 C 7.5 12.8 7.9 13.5 8.5 13.5 Z M 3.9 3.9 L 8.9 2.4 C 10 2 11.1 2.6 11.4 3.7 C 11.5 3.9 11.5 4.1 11.5 4.3 L 11.5 19.8 C 11.5 20.9 10.6 21.8 9.5 21.8 C 9.3 21.8 9.1 21.8 8.9 21.7 L 3.9 20.2 C 3.1 19.9 2.5 19.2 2.5 18.3 L 2.5 5.8 C 2.5 4.9 3.1 4.1 3.9 3.9 Z"
            fill="#eb008d"
            fill-rule="evenodd"/>
    <path
            id="path_2"
            d="M 8.7 5.4 L 13.2 5.4 C 13.6 5.4 14 5.7 14 6.2 L 14 8.2 L 15.5 8.2 L 15.5 6.2 C 15.5 5 14.5 3.9 13.3 3.9 L 8.7 3.9 L 8.7 5.4 Z"
            fill="#eb008d"/>
    <path
            id="path_3"
            d="M 8.7 18.6 L 13.2 18.6 C 13.6 18.6 14 18.3 14 17.8 L 14 15.8 L 15.5 15.8 L 15.5 17.8 C 15.5 19 14.5 20 13.3 20 L 8.7 20 L 8.7 18.6 Z"
            fill="#eb008d"/>
    <path
            id="path_7"
            d="M 18.7 11.3 L 17 9.5 C 16.7 9.2 16.7 8.7 17 8.4 C 17.3 8.1 17.8 8.1 18.1 8.4 L 21.1 11.4 C 21.4 11.7 21.4 12.2 21.1 12.5 L 18.1 15.5 C 17.8 15.8 17.3 15.8 17 15.5 C 16.7 15.2 16.7 14.7 17 14.4 L 18.7 12.7 L 14.3 12.7 C 13.9 12.7 13.5 12.4 13.5 11.9 C 13.5 11.5 13.8 11.1 14.3 11.1 L 18.7 11.1 Z"
            fill="#eb008d"/>
</svg>
