<svg
        xmlns="http://www.w3.org/2000/svg"
        viewBox="0 0 20 20"
        id="vector">
    <g
            id="group"
            transform="translate(2 2)">
        <path
                id="path_3"
                d="M 8 0 C 3.6 0 0 3.6 0 8 C 0 12.4 3.6 16 8 16 C 12.4 16 16 12.4 16 8 C 16 3.6 12.4 0 8 0 Z"
                fill="#0075eb"/>
        <path
                id="path_4"
                d="M 8 -1 C 12.952 -1 17 3.048 17 8 C 17 12.952 12.952 17 8 17 C 3.048 17 -1 12.952 -1 8 C -1 3.048 3.048 -1 8 -1 Z"
                fill="none"
                stroke="#ffffff"
                stroke-width="2"/>
        <path
                id="path_5"
                d="M 8.875 7.959 L 8.875 4.5 C 8.875 4.017 8.483 3.625 8 3.625 C 7.517 3.625 7.125 4.017 7.125 4.5 L 7.125 8.481 C 7.121 8.649 7.166 8.814 7.253 8.956 C 7.346 9.105 7.474 9.219 7.626 9.291 L 10.609 10.783 C 11.041 10.999 11.567 10.824 11.783 10.391 C 11.999 9.959 11.824 9.433 11.391 9.217 L 8.875 7.959 Z"
                fill="#ffffff"/>
    </g>
</svg>
