<?xml version="1.0" encoding="utf-8"?>
<!-- Generator: Adobe Illustrator 22.0.0, SVG Export Plug-In . SVG Version: 6.00 Build 0)  -->
<svg version="1.1" id="vector" xmlns="http://www.w3.org/2000/svg" x="0px"
     y="0px"
     viewBox="0 0 20 20" style="enable-background:new 0 0 20 20;" xml:space="preserve">
<style type="text/css">
	.st0{fill:#0075EB;}
	.st1{fill:none;stroke:#FFFFFF;stroke-width:2;}
	.st2{fill:#FFFFFF;}
</style>
    <g id="group" transform="translate(2 2)">
	<path id="path_3" class="st0" d="M8,0C3.6,0,0,3.6,0,8s3.6,8,8,8s8-3.6,8-8S12.4,0,8,0z"/>
        <path id="path_4" class="st1" d="M8-1c4.952,0,9,4.048,9,9s-4.048,9-9,9s-9-4.048-9-9S3.048-1,8-1z"/>
</g>
    <path id="path_1" class="st2" d="M14.0645,6.2253l0.6644-0.671C15.1546,5.1237,15.5,5.2628,15.5,5.8783v2.195
	c0,0.3047-0.2497,0.5517-0.5456,0.5517h-2.1621c-0.6088,0-0.7573-0.3487-0.3311-0.7793l0.8294-0.8382
	C12.3595,6.1016,11.2116,5.6,10,5.6c-2.4376,0-4.4,1.9624-4.4,4.4s1.9624,4.4,4.4,4.4c1.8848,0,3.5519-1.1962,4.1734-2.9425
	c0.1018-0.2865,0.4163-0.4356,0.7023-0.3338c0.2866,0.1017,0.4356,0.4163,0.3339,0.7023C14.433,14.0079,12.3534,15.5,10,15.5
	c-3.0454,0-5.5-2.4546-5.5-5.5S6.9546,4.5,10,4.5C11.5147,4.5,12.9342,5.1231,14.0645,6.2253z"/>
</svg>
