<?xml version="1.0" encoding="utf-8"?>
<!-- Generator: Adobe Illustrator 23.1.1, SVG Export Plug-In . SVG Version: 6.00 Build 0)  -->
<svg version="1.1" id="vector" xmlns="http://www.w3.org/2000/svg" xmlns:xlink="http://www.w3.org/1999/xlink" x="0px" y="0px"
	 viewBox="0 0 40 40" style="enable-background:new 0 0 40 40;" xml:space="preserve">
<style type="text/css">
	.st0{fill:#979EAF;fill-opacity:0.1;}
	.st1{display:none;}
	.st2{display:inline;fill:none;}
	.st3{display:inline;fill:#8B959E;fill-opacity:0.5;}
</style>
<g id="group_3" transform="translate(-16 -18)">
	<g id="group_2" transform="translate(16 18)">
		<path id="path_1" class="st0" d="M20,40c11,0,20-9,20-20S31,0,20,0S0,9,0,20S9,40,20,40z"/>
		<g id="group" transform="translate(8 8)" class="st1">
			<path id="path_2" class="st2" d="M0,0h24v24H0V0z"/>
			<path id="path_3" class="st3" d="M6.4,19c1.5,1.2,3.5,2,5.6,2c5,0,9-4,9-9c0-2.1-0.7-4.1-2-5.6L6.4,19z M5,17.6L17.6,5
				c-1.5-1.2-3.5-2-5.6-2c-5,0-9,4-9,9C3,14.1,3.7,16.1,5,17.6z M12,23C5.9,23,1,18.1,1,12S5.9,1,12,1s11,4.9,11,11S18.1,23,12,23z"
				/>
		</g>
	</g>
</g>
<g id="group_1_" transform="translate(4 4)">
	<path id="path" d="M11.3,19.2c-0.6-0.8-0.9-1.9-0.9-2.9s0.3-2.1,0.9-2.9l1.6,1.6c-0.2,0.4-0.3,0.9-0.3,1.4s0.1,1,0.3,1.4L11.3,19.2
		z M12.9,20.7l1.6-1.6c0.4,0.2,0.9,0.3,1.4,0.3s1-0.1,1.4-0.3l1.6,1.6c-0.8,0.6-1.9,0.9-2.9,0.9S13.7,21.3,12.9,20.7z M18.7,11.8
		l-1.6,1.6c-0.4-0.2-0.9-0.3-1.4-0.3s-1,0.1-1.4,0.3l-1.6-1.6c0.8-0.6,1.9-0.9,2.9-0.9S17.9,11.2,18.7,11.8z M20.3,13.3
		c0.6,0.8,0.9,1.9,0.9,2.9s-0.3,2.1-0.9,2.9l-1.6-1.6c0.2-0.4,0.3-0.9,0.3-1.4s-0.1-1-0.3-1.4L20.3,13.3z M8.3,26.9
		c-1.8,0-3.2-1.4-3.2-3.2v-15c0-1.8,1.4-3.2,3.2-3.2h15c1.8,0,3.2,1.4,3.2,3.2v15c0,1.8-1.4,3.2-3.2,3.2v0.5c0,0.9-0.7,1.6-1.6,1.6
		c-0.9,0-1.6-0.7-1.6-1.6v-0.5h-8.6v0.5c0,0.9-0.7,1.6-1.6,1.6c-0.9,0-1.6-0.7-1.6-1.6V26.9z M11.5,26.9H8.3H11.5z M15.8,23.7
		c4.2,0,7.5-3.3,7.5-7.5S20,8.8,15.8,8.8s-7.5,3.3-7.5,7.5S11.6,23.7,15.8,23.7z"/>
</g>
</svg>
