<svg
        xmlns="http://www.w3.org/2000/svg"
        viewBox="0 0 40 40"
        id="vector">
    <path
            id="path_1"
            d="M 20 40 C 31.046 40 40 31.046 40 20 C 40 8.954 31.046 0 20 0 C 8.954 0 0 8.954 0 20 C 0 31.046 8.954 40 20 40 Z"
            fill="#ffffff"
            stroke-width="1"/>
    <path
            id="path_2"
            d="M 20 40 C 31.046 40 40 31.046 40 20 C 40 8.954 31.046 0 20 0 C 8.954 0 0 8.954 0 20 C 0 31.046 8.954 40 20 40 Z"
            fill="#6a8cad"
            fill-opacity="0.1"
            stroke-opacity="0.1"
            stroke-width="1"/>
    <g
            id="group"
            transform="translate(8 8)">
        <path
                id="path_3"
                d="M 0 0 L 24 0 L 24 24 L 0 24 L 0 0 Z"
                fill="none"
                stroke-width="1"/>
        <path
                id="path_4"
                d="M 19.28 3.618 L 21.974 2.057 C 22.697 1.638 23.137 1.959 22.964 2.77 L 21.975 7.396 C 21.972 7.519 21.946 7.64 21.899 7.752 L 21.796 8.236 C 21.684 8.758 21.159 9.074 20.629 8.912 L 15.196 7.254 C 14.4 7.011 14.343 6.478 15.063 6.061 L 17.422 4.694 C 15.95 3.619 14.148 3 12.244 3 C 7.43 3 3.488 6.945 3.488 11.762 C 3.488 12.314 3.04 12.762 2.488 12.762 C 1.936 12.762 1.488 12.314 1.488 11.762 C 1.488 5.841 6.326 1 12.244 1 C 14.884 1 17.364 1.968 19.28 3.618 Z M 5.196 19.896 L 2.829 21.622 C 2.154 22.113 1.682 21.841 1.77 21.016 L 2.36 15.458 C 2.416 14.927 2.906 14.558 3.45 14.663 L 9.027 15.745 C 9.843 15.903 9.956 16.428 9.283 16.918 L 6.866 18.679 C 8.373 19.847 10.253 20.524 12.244 20.524 C 17.057 20.524 21 16.579 21 11.762 C 21 11.21 21.448 10.762 22 10.762 C 22.552 10.762 23 11.21 23 11.762 C 23 17.683 18.162 22.524 12.244 22.524 C 9.598 22.524 7.114 21.552 5.196 19.896 Z"
                fill="#6a8cad"
                stroke-width="1"/>
    </g>
</svg>
