<svg
        xmlns="http://www.w3.org/2000/svg"
        viewBox="0 0 40 40"
        id="vector">
    <path
            id="path_1"
            d="M 20 40 C 31.046 40 40 31.046 40 20 C 40 8.954 31.046 0 20 0 C 8.954 0 0 8.954 0 20 C 0 31.046 8.954 40 20 40 Z"
            fill="#ffffff"
            stroke-width="1"/>
    <path
            id="path_2"
            d="M 20 40 C 31.046 40 40 31.046 40 20 C 40 8.954 31.046 0 20 0 C 8.954 0 0 8.954 0 20 C 0 31.046 8.954 40 20 40 Z"
            fill="#6a8cad"
            fill-opacity="0.1"
            stroke-opacity="0.1"
            stroke-width="1"/>
    <g
            id="group"
            transform="translate(8 8)">
        <path
                id="path_3"
                d="M 0 0 L 24 0 L 24 24 L 0 24 L 0 0 Z"
                fill="none"
                stroke-width="1"/>
        <path
                id="path_4"
                d="M 9.002 6 L 14.005 6 C 18.418 6 22 9.587 22 14 C 22 18.42 18.424 22 14.005 22 L 6 22 C 5.448 22 5 21.552 5 21 C 5 20.448 5.448 20 6 20 L 14.005 20 C 17.319 20 20 17.316 20 14 C 20 10.691 17.313 8 14.005 8 L 9.005 8 L 9.009 10.996 C 9.011 11.831 8.513 12.053 7.897 11.497 L 3.747 7.752 C 3.351 7.395 3.34 6.782 3.745 6.403 L 7.898 2.527 C 8.506 1.96 8.997 2.177 8.998 3.009 L 9.002 6 Z"
                fill="#6a8cad"
                stroke-width="1"/>
    </g>
</svg>
