<svg
        xmlns="http://www.w3.org/2000/svg"
        viewBox="0 0 40 40"
        id="vector">
    <path
            id="path"
            d="M 20 40 C 31.046 40 40 31.046 40 20 C 40 8.954 31.046 0 20 0 C 8.954 0 0 8.954 0 20 C 0 31.046 8.954 40 20 40 Z"
            fill="#ffffff"
            stroke-width="1"/>
    <path
            id="path_5"
            d="M 20 40 C 31.046 40 40 31.046 40 20 C 40 8.954 31.046 0 20 0 C 8.954 0 0 8.954 0 20 C 0 31.046 8.954 40 20 40 Z"
            fill="#6a8cad"
            fill-opacity="0.1"
            stroke-opacity="0.1"
            stroke-width="1"/>
    <g
            id="group_1"
            transform="translate(8 8)">
        <path
                id="path_6"
                d="M 0 0 L 24 0 L 24 24 L 0 24 L 0 0 Z"
                fill="none"
                stroke-width="1"/>
        <path
                id="path_7"
                d="M 18.427 8 L 21.008 8 C 21.556 8 22 8.443 22 9.009 L 22 10.991 C 22 11.548 21.545 12 21.008 12 L 2.992 12 C 2.444 12 2 11.557 2 10.991 L 2 9.009 C 2 8.452 2.455 8 2.992 8 L 5.573 8 C 4.896 7.377 4.5 6.476 4.5 5.331 C 4.5 3.658 5.82 2 8 2 C 9.768 2 11.069 3.172 12 5.014 C 12.931 3.172 14.232 2 16 2 C 18.18 2 19.5 3.658 19.5 5.331 C 19.5 6.476 19.104 7.377 18.427 8 Z M 3 13 L 21 13 L 21 21.002 C 21 21.553 20.555 22 20.007 22 L 3.993 22 C 3.445 22 3 21.554 3 21.002 L 3 13 Z M 11 13 L 13 13 L 13 22 L 11 22 L 11 13 Z M 10.231 5.947 C 9.6 4.687 8.845 4 8 4 C 7.038 4 6.5 4.676 6.5 5.331 C 6.5 6.459 7.178 7 8.5 7 L 10.285 7 C 10.433 7 10.561 7 10.674 7 C 10.546 6.638 10.398 6.282 10.231 5.947 Z M 13.715 7 L 15.5 7 C 16.822 7 17.5 6.459 17.5 5.331 C 17.5 4.676 16.962 4 16 4 C 15.155 4 14.4 4.687 13.769 5.947 C 13.602 6.282 13.454 6.638 13.326 7 C 13.439 7 13.567 7 13.715 7 Z"
                fill="#6a8cad"
                stroke-width="1"/>
    </g>
</svg>
