<svg
        xmlns="http://www.w3.org/2000/svg"
        viewBox="0 0 24 24"
        id="vector">
    <path
            id="path"
            d="M 22 8.5 C 19.791 8.5 18 10.291 18 12.5 C 18 14.709 19.791 16.5 22 16.5 L 22 18.008 C 22 19.108 21.102 20 20.009 20 L 3.991 20 C 2.891 20 2 19.107 2 18.008 L 2 6.992 C 2 5.892 2.898 5 3.991 5 L 20.009 5 C 21.109 5 22 5.893 22 6.992 L 22 8.5 Z M 22 14.5 C 20.895 14.5 20 13.605 20 12.5 C 20 11.395 20.895 10.5 22 10.5 C 23.105 10.5 24 11.395 24 12.5 C 24 13.605 23.105 14.5 22 14.5 Z"
            fill="#8b959e"/>
</svg>
