<svg
        xmlns="http://www.w3.org/2000/svg"
        viewBox="0 0 40 40"
        id="vector">
    <path
            id="path_1"
            d="M 20 40 C 31.046 40 40 31.046 40 20 C 40 8.954 31.046 0 20 0 C 8.954 0 0 8.954 0 20 C 0 31.046 8.954 40 20 40 Z"
            fill="#ffffff"
            stroke-width="1"/>
    <path
            id="path_2"
            d="M 20 40 C 31.046 40 40 31.046 40 20 C 40 8.954 31.046 0 20 0 C 8.954 0 0 8.954 0 20 C 0 31.046 8.954 40 20 40 Z"
            fill="#6a8cad"
            fill-opacity="0.1"
            stroke-opacity="0.1"
            stroke-width="1"/>
    <g
            id="group"
            transform="translate(8 8)">
        <path
                id="path_3"
                d="M 0 0 L 24 0 L 24 24 L 0 24 L 0 0 Z"
                fill="none"
                stroke-width="1"/>
        <path
                id="path_4"
                d="M 2 5.809 C 2 4.977 2.659 4.362 3.501 4.426 C 3.501 4.426 4.39 4.551 6.837 4.551 C 10.863 4.551 11.921 4.365 15.911 4.001 C 19.623 3.661 20.54 4.047 20.54 4.047 C 21.346 4.188 22 4.967 22 5.809 L 22 15.494 C 22 16.326 21.337 16.932 20.5 16.862 C 20.5 16.862 19.523 16.698 16.082 16.698 C 12.052 16.698 11.023 17 7 17.248 C 4.482 17.403 3.49 17.177 3.49 17.177 C 2.667 17.079 2 16.335 2 15.494 L 2 5.809 Z M 20.728 18.517 C 21.136 18.592 21.405 18.983 21.33 19.39 C 21.256 19.798 20.865 20.067 20.457 19.993 C 20.268 19.958 19.887 19.903 19.328 19.848 C 18.387 19.754 17.3 19.698 16.084 19.698 C 13.58 19.698 12.083 19.766 10.351 19.931 C 9.936 19.971 8.388 20.132 8.074 20.163 C 6.585 20.311 5.143 20.311 3.867 20.222 C 3.545 20.2 3.31 20.177 3.18 20.161 C 2.769 20.112 2.476 19.738 2.525 19.327 C 2.575 18.915 2.949 18.622 3.36 18.672 C 3.466 18.685 3.675 18.705 3.971 18.726 C 5.169 18.809 6.529 18.809 7.926 18.671 C 8.233 18.64 9.785 18.479 10.208 18.438 C 11.989 18.268 13.534 18.198 16.084 18.198 C 17.351 18.198 18.487 18.257 19.476 18.355 C 19.825 18.39 20.132 18.427 20.393 18.464 C 20.554 18.487 20.666 18.506 20.728 18.517 Z M 12 14 C 13.657 14 15 12.433 15 10.5 C 15 8.567 13.657 7 12 7 C 10.343 7 9 8.567 9 10.5 C 9 12.433 10.343 14 12 14 Z M 19 8 C 19.552 8 20 7.552 20 7 C 20 6.448 19.552 6 19 6 C 18.448 6 18 6.448 18 7 C 18 7.552 18.448 8 19 8 Z M 5 15 C 5.552 15 6 14.552 6 14 C 6 13.448 5.552 13 5 13 C 4.448 13 4 13.448 4 14 C 4 14.552 4.448 15 5 15 Z"
                fill="#6a8cad"
                stroke-width="1"/>
    </g>
</svg>
