<svg
        xmlns="http://www.w3.org/2000/svg"
        viewBox="0 0 40 40"
        id="vector">
    <path
            id="path_1"
            d="M 20 40 C 31.046 40 40 31.046 40 20 C 40 8.954 31.046 0 20 0 C 8.954 0 0 8.954 0 20 C 0 31.046 8.954 40 20 40 Z"
            fill="#ffffff"
            stroke-width="1"/>
    <path
            id="path_2"
            d="M 20 40 C 31.046 40 40 31.046 40 20 C 40 8.954 31.046 0 20 0 C 8.954 0 0 8.954 0 20 C 0 31.046 8.954 40 20 40 Z"
            fill="#f2463c"
            fill-opacity="0.1"
            stroke-opacity="0.1"
            stroke-width="1"/>
    <g
            id="group"
            transform="translate(8 8)">
        <path
                id="path_3"
                d="M 0 0 L 24 0 L 24 24 L 0 24 L 0 0 Z"
                fill="none"
                stroke-width="1"/>
        <path
                id="path_4"
                d="M 9 12 L 9 10.991 C 9 10.451 8.552 10 8 10 C 7.444 10 7 10.444 7 10.991 L 7 12 L 5.991 12 C 5.451 12 5 12.448 5 13 C 5 13.556 5.444 14 5.991 14 L 7 14 L 7 15.009 C 7 15.549 7.448 16 8 16 C 8.556 16 9 15.556 9 15.009 L 9 14 L 10.009 14 C 10.549 14 11 13.552 11 13 C 11 12.444 10.556 12 10.009 12 L 9 12 Z M 11 6 L 11 3 C 11 2.448 11.444 2 12 2 C 12.552 2 13 2.444 13 3 L 13 6 L 16.009 6 C 19.87 6 23 9.142 23 13 C 23 16.866 19.863 20 16.009 20 L 15.989 20 C 15.989 20 14.5 19 12 19 C 9.5 19 8.05 20 8.05 20 L 8.005 20 C 4.136 20 1 16.858 1 13 C 1 9.134 4.129 6 7.991 6 L 11 6 Z M 18.5 13 C 19.328 13 20 12.328 20 11.5 C 20 10.672 19.328 10 18.5 10 C 17.672 10 17 10.672 17 11.5 C 17 12.328 17.672 13 18.5 13 Z M 15.5 16 C 16.328 16 17 15.328 17 14.5 C 17 13.672 16.328 13 15.5 13 C 14.672 13 14 13.672 14 14.5 C 14 15.328 14.672 16 15.5 16 Z"
                fill="#f2463c"
                stroke-width="1"/>
    </g>
</svg>
