<svg
        xmlns="http://www.w3.org/2000/svg"
        viewBox="0 0 40 40"
        id="vector">
    <path
            id="path_4"
            d="M 20 40 C 31.046 40 40 31.046 40 20 C 40 8.954 31.046 0 20 0 C 8.954 0 0 8.954 0 20 C 0 31.046 8.954 40 20 40 Z"
            fill="#ffffff"
            stroke-width="1"/>
    <path
            id="path_5"
            d="M 20 40 C 31.046 40 40 31.046 40 20 C 40 8.954 31.046 0 20 0 C 8.954 0 0 8.954 0 20 C 0 31.046 8.954 40 20 40 Z"
            fill="#bdd001"
            fill-opacity="0.1"
            stroke-opacity="0.1"
            stroke-width="1"/>
    <g
            id="group_1"
            transform="translate(8 8)">
        <path
                id="path_6"
                d="M 0 0 L 24 0 L 24 24 L 0 24 L 0 0 Z"
                fill="none"
                stroke-width="1"/>
        <path
                id="path_7"
                d="M 19.646 9 L 21.998 9 C 22.551 9 22.958 9.441 22.86 9.98 C 22.86 9.98 23 10 22.245 12.02 C 22.062 12.51 22 13 21 13.024 C 20 17.5 19.215 21.033 19.215 21.033 C 19.096 21.567 18.55 22 17.993 22 L 6.007 22 C 5.451 22 4.901 21.555 4.785 21.032 C 4.785 21.032 4 17.5 3 13 C 2 13.024 1.876 12.504 1.752 12.007 L 1.242 9.966 C 1.108 9.433 1.439 9 2.002 9 L 4.354 9 C 4.383 8.934 4.418 8.869 4.46 8.807 L 8.46 2.807 C 8.843 2.232 9.619 2.077 10.193 2.46 C 10.768 2.843 10.923 3.619 10.54 4.193 L 7.336 9 L 16.664 9 L 13.46 4.193 C 13.077 3.619 13.232 2.843 13.807 2.46 C 14.381 2.077 15.157 2.232 15.54 2.807 L 19.54 8.807 C 19.582 8.869 19.617 8.934 19.646 9 Z M 11 14 L 11 17 C 11 17.556 11.448 18 12 18 C 12.556 18 13 17.552 13 17 L 13 14 C 13 13.444 12.552 13 12 13 C 11.444 13 11 13.448 11 14 Z M 15 14 L 15 17 C 15 17.556 15.448 18 16 18 C 16.556 18 17 17.552 17 17 L 17 14 C 17 13.444 16.552 13 16 13 C 15.444 13 15 13.448 15 14 Z M 7 14 L 7 17 C 7 17.556 7.448 18 8 18 C 8.556 18 9 17.552 9 17 L 9 14 C 9 13.444 8.552 13 8 13 C 7.444 13 7 13.448 7 14 Z"
                fill="#bacb0b"
                stroke-width="1"/>
    </g>
</svg>
