<svg
        xmlns="http://www.w3.org/2000/svg"
        viewBox="0 0 40 40"
        id="vector">
    <path
            id="path"
            d="M 20 40 C 31.046 40 40 31.046 40 20 C 40 8.954 31.046 0 20 0 C 8.954 0 0 8.954 0 20 C 0 31.046 8.954 40 20 40 Z"
            fill="#ffffff"
            stroke-width="1"/>
    <path
            id="path_1"
            d="M 20 40 C 31.046 40 40 31.046 40 20 C 40 8.954 31.046 0 20 0 C 8.954 0 0 8.954 0 20 C 0 31.046 8.954 40 20 40 Z"
            fill="#7ed020"
            fill-opacity="0.1"
            stroke-opacity="0.1"
            stroke-width="1"/>
    <g
            id="group"
            transform="translate(8 8)">
        <path
                id="path_2"
                d="M 0 0 L 24 0 L 24 24 L 0 24 L 0 0 Z"
                fill="none"
                stroke-width="1"/>
        <path
                id="path_3"
                d="M 10 2 C 10 1.475 10.46 1 11 1 C 11.54 1 12 1.35 12 1.875 L 12 9 C 12 10.5 11 12 9 12 L 9.5 21 C 9.5 21.962 9 23 7.5 23 C 6 23 5.5 21.962 5.5 21 L 6 12 C 4 12 3 10.488 3 9 L 3 2 C 3 1.475 3.5 1 4 1 C 4.5 1 5 1.5 5 2 L 5 6.5 C 5 7.5 6.5 7.5 6.5 6.5 L 6.5 2 C 6.5 1.475 6.96 1 7.5 1 C 8.04 1 8.5 1.475 8.5 2 L 8.5 6.5 C 8.5 7.5 10 7.5 10 6.5 L 10 2 Z M 15 6.5 C 15 3.612 17.13 1 20.1 1 C 20.64 1 21 1.35 21 1.875 L 21 21 C 21 21.962 20.5 23 19 23 C 17.5 23 17 21.962 17 21 L 17.5 15 L 16 15 C 15.46 15 15 14.525 15 14 L 15 6.5 Z"
                fill="#7ed020"
                stroke-width="1"/>
    </g>
</svg>
