<svg
        xmlns="http://www.w3.org/2000/svg"
        viewBox="0 0 40 40"
        id="vector">
    <path
            id="path"
            d="M 20 40 C 31.046 40 40 31.046 40 20 C 40 8.954 31.046 0 20 0 C 8.954 0 0 8.954 0 20 C 0 31.046 8.954 40 20 40 Z"
            fill="#ffffff"
            stroke-width="1"/>
    <path
            id="path_1"
            d="M 20 40 C 31.046 40 40 31.046 40 20 C 40 8.954 31.046 0 20 0 C 8.954 0 0 8.954 0 20 C 0 31.046 8.954 40 20 40 Z"
            fill="#6085a7"
            fill-opacity="0.1"
            stroke-opacity="0.1"
            stroke-width="1"/>
    <g
            id="group"
            transform="translate(8 8)">
        <path
                id="path_2"
                d="M 0 0 L 24 0 L 24 24 L 0 24 L 0 0 Z"
                fill="none"
                stroke-width="1"/>
        <path
                id="path_3"
                d="M 16 6 L 20.009 6 C 21.109 6 22 6.887 22 8.006 L 22 11.997 C 22 12.551 21.545 13 21.008 13 L 14 13 C 13.997 11.891 13.103 11 12 11 C 10.889 11 10.003 11.895 10 13 L 2.992 13 C 2.444 13 2 12.562 2 11.997 L 2 8.006 C 2 6.898 2.898 6 3.991 6 L 8 6 C 8 5.998 8 5.997 8 5.995 L 8 5.005 C 8 3.347 9.344 2 10.998 2 L 13.002 2 C 14.66 2 16 3.343 16 5.005 L 16 5.995 C 16 5.997 16 5.998 16 6 Z M 10 14 L 3 14 L 3 18.994 C 3 20.113 3.893 21 4.995 21 L 19.005 21 C 20.107 21 21 20.102 21 18.994 L 21 14 L 14 14 C 13.997 15.105 13.111 16 12 16 C 10.897 16 10.003 15.109 10 14 Z M 10 5.005 L 10 5.995 L 14 5.995 L 14 5.005 C 14 4.447 13.554 4 13.002 4 L 10.998 4 C 10.45 4 10 4.451 10 5.005 Z"
                fill="#6a8cad"
                stroke-width="1"/>
    </g>
</svg>
