<svg
        xmlns="http://www.w3.org/2000/svg"
        viewBox="0 0 40 40"
        id="vector">
    <path
            id="path_4"
            d="M 20 40 C 31.046 40 40 31.046 40 20 C 40 8.954 31.046 0 20 0 C 8.954 0 0 8.954 0 20 C 0 31.046 8.954 40 20 40 Z"
            fill="#ffffff"
            stroke-width="1"/>
    <path
            id="path_5"
            d="M 20 40 C 31.046 40 40 31.046 40 20 C 40 8.954 31.046 0 20 0 C 8.954 0 0 8.954 0 20 C 0 31.046 8.954 40 20 40 Z"
            fill="#e24e8b"
            fill-opacity="0.1"
            stroke-opacity="0.1"
            stroke-width="1"/>
    <g
            id="group_1"
            transform="translate(8 8)">
        <path
                id="path_6"
                d="M 0 0 L 24 0 L 24 24 L 0 24 L 0 0 Z"
                fill="none"
                stroke-width="1"/>
        <path
                id="path_7"
                d="M 8 7 L 8 5.005 C 8 2.795 9.793 1 12 1 C 14.21 1 16 2.793 16 5.005 L 16 7 L 18.099 7 C 18.65 7 19.157 7.449 19.23 7.984 L 20.855 20.008 C 21.004 21.108 20.219 22 19.119 22 L 4.881 22 C 3.773 22 2.996 21.107 3.145 20.008 L 4.77 7.984 C 4.844 7.441 5.344 7 5.901 7 L 8 7 Z M 10 7 L 14 7 L 14 5.005 C 14 3.896 13.105 3 12 3 C 10.898 3 10 3.899 10 5.005 L 10 7 Z"
                fill="#e24e8b"
                stroke-width="1"/>
    </g>
</svg>
