<svg
        xmlns="http://www.w3.org/2000/svg"
        viewBox="0 0 40 40"
        id="vector">
    <path
            id="path"
            d="M 20 40 C 31.046 40 40 31.046 40 20 C 40 8.954 31.046 0 20 0 C 8.954 0 0 8.954 0 20 C 0 31.046 8.954 40 20 40 Z"
            fill="#ffffff"
            stroke-width="1"/>
    <path
            id="path_1"
            d="M 20 40 C 31.046 40 40 31.046 40 20 C 40 8.954 31.046 0 20 0 C 8.954 0 0 8.954 0 20 C 0 31.046 8.954 40 20 40 Z"
            fill="#647ec4"
            fill-opacity="0.1"
            stroke-opacity="0.1"
            stroke-width="1"/>
    <g
            id="group"
            transform="translate(8 8)">
        <path
                id="path_2"
                d="M 0 0 L 24 0 L 24 24 L 0 24 L 0 0 Z"
                fill="none"
                stroke-width="1"/>
        <path
                id="path_3"
                d="M 20 14 L 20 18.993 C 20 19.55 19.552 20 19 20 L 19 21 C 19 21.55 18.55 22 18 22 L 17 22 C 16.45 22 16 21.55 16 21 L 8 21 C 8 21.55 7.55 22 7 22 L 6 22 C 5.45 22 5 21.55 5 21 L 5 20 C 4.453 20 4 19.549 4 18.993 L 4 14 C 3.448 14 3 13.557 3 12.991 L 3 11.009 C 3 10.452 3.444 10 4 10 L 4 6 C 4 2.5 7.58 2 12 2 C 16.42 2 20 2.5 20 6 L 20 10 C 20.552 10 21 10.443 21 11.009 L 21 12.991 C 21 13.548 20.556 14 20 14 Z M 7.5 18 C 8.33 18 9 17.33 9 16.5 C 9 15.67 8.33 15 7.5 15 C 6.67 15 6 15.67 6 16.5 C 6 17.33 6.67 18 7.5 18 Z M 16.5 18 C 17.33 18 18 17.33 18 16.5 C 18 15.67 17.33 15 16.5 15 C 15.67 15 15 15.67 15 16.5 C 15 17.33 15.67 18 16.5 18 Z M 18 11.997 L 18 7.003 C 18 6.438 17.551 6 16.998 6 L 7.002 6 C 6.456 6 6 6.449 6 7.003 L 6 11.997 C 6 12.562 6.449 13 7.002 13 L 16.998 13 C 17.544 13 18 12.551 18 11.997 Z"
                fill="#647ec4"
                stroke-width="1"/>
    </g>
</svg>
