<svg
        xmlns="http://www.w3.org/2000/svg"
        viewBox="0 0 40 40"
        id="vector">
    <path
            id="path_4"
            d="M 20 40 C 31.046 40 40 31.046 40 20 C 40 8.954 31.046 0 20 0 C 8.954 0 0 8.954 0 20 C 0 31.046 8.954 40 20 40 Z"
            fill="#ffffff"
            stroke-width="1"/>
    <path
            id="path_5"
            d="M 20 40 C 31.046 40 40 31.046 40 20 C 40 8.954 31.046 0 20 0 C 8.954 0 0 8.954 0 20 C 0 31.046 8.954 40 20 40 Z"
            fill="#00b0ff"
            fill-opacity="0.1"
            stroke-opacity="0.1"
            stroke-width="1"/>
    <g
            id="group_1"
            transform="translate(8 8)">
        <path
                id="path_6"
                d="M 0 0 L 24 0 L 24 24 L 0 24 L 0 0 Z"
                fill="none"
                stroke-width="1"/>
        <path
                id="path_7"
                d="M 18.786 18.98 C 18.825 19.147 18.775 19.323 18.653 19.444 L 17.243 20.854 C 17.006 21.092 16.605 21.031 16.449 20.733 L 12.887 13.932 L 9.666 17.153 L 10.068 20.036 C 10.09 20.191 10.038 20.348 9.927 20.459 L 8.869 21.516 C 8.635 21.751 8.242 21.695 8.081 21.406 L 6.304 17.696 L 2.602 16.013 C 2.313 15.853 2.258 15.46 2.492 15.225 L 3.549 14.168 C 3.66 14.057 3.817 14.005 3.972 14.027 L 6.847 14.334 L 10.068 11.113 L 3.267 7.551 C 2.969 7.395 2.908 6.994 3.146 6.757 L 4.556 5.347 C 4.677 5.225 4.853 5.175 5.02 5.214 L 13.906 7.095 L 17.706 3.047 C 18.486 2.267 20.098 2.267 20.878 3.047 C 21.658 3.826 21.826 5.287 21.046 6.067 L 16.927 10.048 L 18.786 18.98 Z"
                fill="#2196f3"
                stroke-width="1"/>
    </g>
</svg>
