<svg
        xmlns="http://www.w3.org/2000/svg"
        viewBox="0 0 40 40"
        id="vector">
    <path
            id="path"
            d="M 20 40 C 31.046 40 40 31.046 40 20 C 40 8.954 31.046 0 20 0 C 8.954 0 0 8.954 0 20 C 0 31.046 8.954 40 20 40 Z"
            fill="#ffffff"
            stroke-width="1"/>
    <path
            id="path_5"
            d="M 20 40 C 31.046 40 40 31.046 40 20 C 40 8.954 31.046 0 20 0 C 8.954 0 0 8.954 0 20 C 0 31.046 8.954 40 20 40 Z"
            fill="#a37773"
            fill-opacity="0.1"
            stroke-opacity="0.1"
            stroke-width="1"/>
    <g
            id="group_1"
            transform="translate(8 8)">
        <path
                id="path_6"
                d="M 0 0 L 24 0 L 24 24 L 0 24 L 0 0 Z"
                fill="none"
                stroke-width="1"/>
        <path
                id="path_7"
                d="M 3 8.989 L 3 4.991 C 3 4.444 3.443 4 3.999 4 L 5.001 4 C 5.553 4 6 4.451 6 4.991 L 6 6.137 L 10.248 2.097 C 11.224 1.168 12.776 1.167 13.752 2.097 L 22.641 10.579 C 23.241 11.151 23.264 12.1 22.693 12.7 C 22.244 13.171 21.563 13.287 21 13.038 L 21 21.004 C 21 21.554 20.555 22 20.007 22 L 3.993 22 C 3.445 22 3 21.555 3 21.004 L 3 12.996 C 2.442 13.232 1.773 13.113 1.33 12.648 C 0.759 12.048 0.782 11.099 1.382 10.528 L 3 8.989 Z M 12 13 L 12 22 L 17 22 L 17 13 L 12 13 Z M 6 13 L 6 16 L 9 16 L 9 13 L 6 13 Z"
                fill="#a37773"
                stroke-width="1"/>
    </g>
</svg>
